<svg xmlns="http://www.w3.org/2000/svg" viewBox="0 0 833.33 387.94"><defs><style>.cls-1{fill:#a59a83;}.cls-2{fill:#c5b28c;}.cls-3{fill:#d0bfa0;}</style></defs><title>Asset 1</title><g id="Layer_2" data-name="Layer 2"><g id="Layer_1-2" data-name="Layer 1"><polygon class="cls-1" points="55.32 199.57 0 258.41 55.32 95.41 55.32 199.57"></polygon><polygon class="cls-2" points="148.29 208.1 55.32 199.57 0 258.41 148.29 208.1"></polygon><polygon class="cls-3" points="104.15 313.14 148.29 208.1 0 258.41 104.15 313.14"></polygon><polygon class="cls-2" points="199.48 248.41 148.29 208.1 104.15 313.14 199.48 248.41"></polygon><polygon class="cls-1" points="99.45 121.89 199.48 248.41 148.29 208.1 99.45 121.89"></polygon><polygon class="cls-2" points="165.94 95.41 99.45 121.89 199.48 248.41 165.94 95.41"></polygon><polygon class="cls-2" points="263.22 247.44 195.05 32.25 273.9 10.48 263.22 247.44"></polygon><polygon class="cls-1" points="226.75 295.41 263.22 247.44 195.05 32.25 226.75 295.41"></polygon><polygon class="cls-2" points="479.94 298.23 263.22 247.44 226.75 295.41 479.94 298.23"></polygon><polygon class="cls-3" points="535.84 195.9 479.94 298.23 263.22 247.44 535.84 195.9"></polygon><polygon class="cls-1" points="471.29 387.94 479.94 298.23 535.84 195.9 471.29 387.94"></polygon><polygon class="cls-2" points="349.51 202.45 402.45 129.66 358.01 62.53 349.51 202.45"></polygon><polygon class="cls-3" points="445.77 195.09 358.01 62.53 409.36 61.33 445.77 195.09"></polygon><polygon class="cls-2" points="75.32 84.82 107.1 17.74 121.22 71.29 75.32 84.82"></polygon><polygon class="cls-3" points="55.9 73.64 107.1 17.74 75.32 84.82 55.9 73.64"></polygon><polygon class="cls-2" points="55.9 24.8 55.9 73.64 107.1 17.74 55.9 24.8"></polygon><polygon class="cls-1" points="587.2 231.41 543.95 108.14 550.13 229.64 587.2 231.41"></polygon><polygon class="cls-3" points="648.11 116.08 587.2 231.41 543.95 108.14 648.11 116.08"></polygon><polygon class="cls-2" points="659.2 208.74 587.2 231.41 648.11 116.08 659.2 208.74"></polygon><polygon class="cls-2" points="651.46 247.4 587.2 231.41 550.13 346.15 651.46 247.4"></polygon><polygon class="cls-1" points="821.15 293.36 587.2 231.41 659.2 208.74 821.15 293.36"></polygon><polygon class="cls-2" points="768.78 210.54 825.77 210.54 821.15 293.36 659.2 208.74 768.78 210.54"></polygon><polygon class="cls-1" points="768.78 210.54 825.77 210.54 825.77 185.15 768.78 210.54"></polygon><polygon class="cls-2" points="774.26 182.93 768.78 210.54 825.77 185.15 774.26 182.93"></polygon><polygon class="cls-3" points="710.68 180.19 833.33 74.93 825.77 185.15 710.68 180.19"></polygon><polygon class="cls-2" points="707.11 104.06 710.68 180.19 833.33 74.93 707.11 104.06"></polygon><polygon class="cls-2" points="695.71 82.44 746.9 26.53 746.9 75.37 695.71 82.44"></polygon><polygon class="cls-1" points="727.48 15.35 746.9 26.53 695.71 82.44 727.48 15.35"></polygon><polygon class="cls-2" points="681.58 28.89 695.71 82.44 727.48 15.35 681.58 28.89"></polygon><polygon class="cls-2" points="755.83 55.9 755.83 7.06 807.03 0 755.83 55.9"></polygon><polygon class="cls-1" points="775.25 67.08 807.03 0 755.83 55.9 775.25 67.08"></polygon><polygon class="cls-2" points="821.15 53.55 775.25 67.08 807.03 0 821.15 53.55"></polygon><polygon class="cls-1" points="402.45 129.66 356.01 95.41 358.01 62.53 402.45 129.66"></polygon></g></g></svg>